HIERARCHY
ROOT Hips
{
  OFFSET 0 0 0
  CHANNELS 6 Xposition Yposition Zposition Zrotation Yrotation Xrotation
  JOINT LeftThigh
  {
    OFFSET 8.409438 0 -5.917753
    CHANNELS 3 Zrotation Yrotation Xrotation
    JOINT LeftLeg
    {
      OFFSET 0 0 -42.358652
      CHANNELS 3 Zrotation Yrotation Xrotation
      JOINT LeftFoot
      {
        OFFSET 0 0 -39.357303
        CHANNELS 3 Zrotation Yrotation Xrotation
      }
    }
  }
  JOINT RightThigh
  {
    OFFSET -8.409438 0 -5.917753
    CHANNELS 3 Zrotation Yrotation Xrotation
    JOINT RightLeg
    {
      OFFSET 0 0 -42.358652
      CHANNELS 3 Zrotation Yrotation Xrotation
      JOINT RightFoot
      {
        OFFSET 0 0 -39.357303
        CHANNELS 3 Zrotation Yrotation Xrotation
      }
    }
  }
  JOINT SpineLow
  {
    OFFSET 0 0 4.719101
    CHANNELS 3 Zrotation Yrotation Xrotation
    JOINT SpineMid
    {
      OFFSET 0 0 12.899191
      CHANNELS 3 Zrotation Yrotation Xrotation
      JOINT Chest
      {
        OFFSET 0 0 12.899191
        CHANNELS 3 Zrotation Yrotation Xrotation
        JOINT LeftShoulder
        {
          OFFSET 7.550562 1.41573 9.438202
          CHANNELS 3 Zrotation Yrotation Xrotation
          JOINT LeftArm
          {
            OFFSET 9.155056 0 4.247191
            CHANNELS 3 Zrotation Yrotation Xrotation
            JOINT LeftForearm
            {
              OFFSET 0 0 25.771955
              CHANNELS 3 Zrotation Yrotation Xrotation
              JOINT LeftHand
              {
                OFFSET 0 0 25.197169
                CHANNELS 3 Zrotation Yrotation Xrotation
              }
            }
          }
        }
        JOINT RightShoulder
        {
          OFFSET -7.550562 1.41573 9.438202
          CHANNELS 3 Zrotation Yrotation Xrotation
          JOINT RightArm
          {
            OFFSET -9.155056 0 4.247191
            CHANNELS 3 Zrotation Yrotation Xrotation
            JOINT RightForearm
            {
              OFFSET 0 0 -25.771955
              CHANNELS 3 Zrotation Yrotation Xrotation
              JOINT RightHand
              {
                OFFSET 0 0 -25.197169
                CHANNELS 3 Zrotation Yrotation Xrotation
              }
            }
          }
        }
        JOINT Neck
        {
          OFFSET 0 0 15.101124
          CHANNELS 3 Zrotation Yrotation Xrotation
          JOINT Head
          {
            OFFSET 0 0 11.325843
            CHANNELS 3 Zrotation Yrotation Xrotation
            End Site
            {
              OFFSET 0 0 14.157303
            }
          }
        }
      }
    }
  }
}
MOTION
Frames: 9
Frame Time: 0.0
0.0  101.685394  0.0  2.839285  10.435185  -97.494261  2.003539  -14.130368  6.739068  -0.818595  7.271574  14.058483  1.07208  2.664526  3.50233  -8.865112  16.020756  5.700926  -2.992426  0.776913  3.509951  0.061939  -0.979553  -1.583621  -0.375183  0.685804  2.08646  -0.965747  1.90528  5.693782  -0.965747  1.90528  5.693782  -8.040617  20.329163  6.207838  134.570086  53.268382  -172.379974  15.887161  -1.912395  13.69786  96.287164  -1.448836  1.634331  21.259044  -11.463751  10.502511  130.416914  39.051048  47.223973  -33.781004  -6.333596  -95.56748  41.056451  19.462106  -9.305745  -1.432101  -1.509303  4.026189  -1.064123  -1.141477  3.01595  
0.0  101.685394  0.0  2.84689  10.38904  -97.494378  2.017473  -14.114316  6.76559  -0.78444  7.25817  14.03626  1.10562  2.667142  3.521079  -8.897058  16.038011  5.664964  -2.896265  0.77146  3.53533  0.042433  -0.97476  -1.585697  -0.361921  0.684469  2.094906  -0.929386  1.900609  5.717272  -0.929386  1.900609  5.717271  -8.062739  20.286275  6.183109  134.778549  53.164006  -172.364304  15.835347  -1.905447  13.774126  96.404733  -1.385286  1.393592  21.181824  -11.448809  10.432976  130.406802  39.054298  47.29644  -33.843009  -6.356099  -95.514005  41.097958  19.520791  -9.436638  -1.543758  -1.51749  3.951334  -1.147994  -1.148163  2.959516  
0.0  101.685394  0.0  2.857074  10.369013  -97.488451  2.003028  -14.093884  6.777236  -0.752186  7.252221  14.025944  1.109774  2.663433  3.525489  -8.91174  16.054715  5.654189  -2.875016  0.771532  3.536888  0.052729  -0.972782  -1.582723  -0.369035  0.680144  2.096836  -0.949135  1.889438  5.72239  -0.949135  1.889438  5.72239  -8.008605  20.269556  6.158905  134.809685  53.063467  -172.378301  15.687416  -1.881036  13.798289  96.478551  -1.245098  1.129919  21.19051  -11.394945  10.416159  130.389014  39.101051  47.354983  -33.785332  -6.409506  -95.541218  41.183623  19.534607  -9.555275  -1.603576  -1.484922  3.884578  -1.193231  -1.123946  2.909398  
0.0  101.685394  0.0  2.861708  10.342801  -97.490353  2.041362  -14.099911  6.812601  -0.78669  7.257804  13.97419  1.137728  2.667638  3.541031  -8.93343  16.068862  5.628233  -2.824391  0.767352  3.558368  0.045497  -0.962511  -1.578726  -0.357764  0.679527  2.104799  -0.918171  1.886883  5.744493  -0.918171  1.886883  5.744493  -7.998333  20.205033  6.136992  134.951305  52.945623  -172.376078  15.564069  -1.894112  13.873445  96.560162  -1.125325  0.876576  21.070141  -11.368466  10.352611  130.355122  39.121991  47.455434  -33.751172  -6.438738  -95.532442  41.436715  19.606673  -9.476905  -1.710631  -1.490457  3.814263  -1.273656  -1.128581  2.85639  
0.0  101.685394  0.0  2.872328  10.336755  -97.4882  2.025214  -14.086815  6.82581  -0.7824  7.267031  13.957217  1.15408  2.664435  3.552464  -8.923894  16.083686  5.632975  -2.834997  0.769812  3.56169  0.053698  -0.959217  -1.576428  -0.366935  0.676452  2.108862  -0.943372  1.879337  5.755373  -0.943372  1.879337  5.755373  -7.955519  20.18442  6.108781  135.04576  52.85325  -172.363859  15.394161  -1.897899  13.911436  96.588582  -0.983602  0.617876  21.065113  -11.306972  10.331489  130.343897  39.173103  47.537756  -33.67862  -6.430502  -95.57238  41.645932  19.614252  -9.529909  -1.75549  -1.458811  3.752941  -1.307645  -1.104948  2.810391  
0.0  101.685394  0.0  2.873019  10.324657  -97.491342  2.062139  -14.10714  6.863288  -0.861968  7.285633  13.884634  1.200993  2.675905  3.584596  -8.934428  16.09525  5.620487  -2.838178  0.765475  3.57905  0.065126  -0.95324  -1.573388  -0.360588  0.673831  2.122833  -0.92586  1.871814  5.79378  -0.92586  1.871814  5.79378  -7.961686  20.134439  6.035249  135.214318  52.753306  -172.339116  15.392429  -1.933343  14.038799  96.576371  -0.902547  0.379493  20.987102  -11.258168  10.254468  130.311184  39.21094  47.706171  -33.628102  -6.361808  -95.583114  42.018916  19.691741  -9.445274  -1.837589  -1.456742  3.678079  -1.369408  -1.103674  2.75406  
0.0  101.685394  0.0  2.882801  10.342148  -97.494274  2.047492  -14.099003  6.877207  -0.883655  7.299351  13.869443  1.21499  2.677047  3.593504  -8.918476  16.111243  5.632875  -2.867382  0.768173  3.59215  0.06647  -0.948494  -1.572945  -0.372859  0.670277  2.131265  -0.95945  1.8633  5.816521  -0.95945  1.8633  5.816521  -7.944921  20.110165  5.968503  135.349167  52.656617  -172.320798  15.386962  -1.942286  14.07429  96.608311  -0.776816  0.101987  21.021892  -11.215158  10.202153  130.298081  39.241199  47.866547  -33.581968  -6.202997  -95.598873  42.341688  19.713499  -9.318173  -1.875446  -1.425399  3.621991  -1.398121  -1.08022  2.712009  
0.0  101.685394  0.0  2.886233  10.376254  -97.495634  2.088557  -14.119514  6.916207  -0.969015  7.329525  13.818518  1.235595  2.675812  3.600572  -8.959573  16.129354  5.615094  -2.879541  0.76691  3.621646  0.072958  -0.93537  -1.571081  -0.384034  0.667993  2.136349  -0.990031  1.858115  5.830131  -0.990031  1.858115  5.830131  -7.885438  20.096168  5.964663  135.377689  52.603641  -172.323105  15.480736  -1.945884  14.116324  96.670938  -0.685021  -0.163275  21.124873  -11.214822  10.180038  130.247513  39.278794  48.099817  -33.579503  -6.010086  -95.570722  42.56986  19.769396  -9.207926  -1.92013  -1.412988  3.590405  -1.431781  -1.071077  2.688259  
0.0  101.685394  0.0  2.897197  10.418871  -97.506351  2.090753  -14.111795  6.931953  -1.018302  7.340141  13.812124  1.23829  2.680135  3.598582  -8.946945  16.150494  5.637448  -2.917626  0.768441  3.640654  0.070983  -0.927466  -1.569292  -0.399359  0.65976  2.138979  -1.03254  1.837021  5.836987  -1.03254  1.837021  5.836987  -7.831007  20.098019  5.960691  135.420871  52.513615  -172.335223  15.585036  -1.944667  14.135814  96.819031  -0.545028  -0.4663  21.16974  -11.166484  10.153426  130.268519  39.261766  48.304722  -33.555422  -5.854214  -95.528262  42.695004  19.811507  -9.075897  -1.952885  -1.360357  3.568875  -1.456709  -1.031725  2.672215  
